<svg xmlns="http://www.w3.org/2000/svg" version="1.1" xmlns:xlink="http://www.w3.org/1999/xlink" xmlns:svgjs="http://svgjs.dev/svgjs" width="2000" height="323" viewBox="0 0 2000 323"><g transform="matrix(1,0,0,1,-1.2121212121213603,0.4010833363060726)"><svg viewBox="0 0 396 64" data-background-color="#ffffff" preserveAspectRatio="xMidYMid meet" height="323" width="2000" xmlns="http://www.w3.org/2000/svg" xmlns:xlink="http://www.w3.org/1999/xlink"><g id="tight-bounds" transform="matrix(1,0,0,1,0.24000000000003752,-0.07947162081606507)"><svg viewBox="0 0 395.5199999999999 64.15894324163213" height="64.15894324163213" width="395.5199999999999"><g><svg viewBox="0 0 494.62527898124466 80.2352224919957" height="64.15894324163213" width="395.5199999999999"><g transform="matrix(1,0,0,1,0,6.955997078286416)"><svg viewBox="0 0 395.52 66.32322833542287" height="66.32322833542287" width="395.52"><g id="textblocktransform"><svg viewBox="0 0 395.52 66.32322833542287" height="66.32322833542287" width="395.52" id="textblock"><g><svg viewBox="0 0 395.52 39.96606281292672" height="39.96606281292672" width="395.52"><g transform="matrix(1,0,0,1,0,0)"><svg width="395.52" viewBox="3.5 -32.75 327.83000000000004 33.3" height="39.96606281292672" data-palette-color="#6d285f"><g class="wordmark-text-0" data-fill-palette-color="primary" id="text-0"><path d="M17.15-32.45Q24.25-32.45 28-28.58 31.75-24.7 31.75-17.4L31.75-17.4Q31.75-8.8 27.45-4.2 23.15 0.4 15.15 0.4L15.15 0.4Q10.55 0.4 3.55 0L3.55 0 3.5 0 3.95-9.55 3.5-32.25 3.55-32.25 17.15-32.45ZM16.65-5.75Q23.3-5.75 23.3-15.45L23.3-15.45Q23.3-21.15 21.7-23.6 20.1-26.05 16.5-26.05L16.5-26.05Q13.85-26.05 11.65-25.85L11.65-25.85 11.35-10.35 11.45-6.15Q14.4-5.75 16.65-5.75L16.65-5.75ZM49.7-6.3L57.8-6.6 58.25-6 57.75 0 36.45 0 36.9-9.55 36.45-32.25 58.05-32.25 58.5-31.65 57.95-25.65 50.1-25.95 44.6-25.9 44.5-19.45 49.75-19.45 55-19.6 55.45-19 54.95-13 49.2-13.15 44.35-13.15 44.3-10.35 44.4-6.35 49.7-6.3ZM73.7-32.75Q78-32.75 82.4-31.05L82.4-31.05 81.1-24.25 79.9-23.8Q78-25.05 76.1-25.75 74.2-26.45 72.8-26.45L72.8-26.45Q71.15-26.45 70.17-25.63 69.2-24.8 69.2-23.7L69.2-23.7Q69.2-22.45 70.42-21.58 71.65-20.7 74.3-19.5L74.3-19.5Q77.1-18.2 78.82-17.13 80.55-16.05 81.82-14.25 83.1-12.45 83.1-9.85L83.1-9.85Q83.1-6.95 81.52-4.6 79.95-2.25 77.05-0.88 74.15 0.5 70.35 0.5L70.35 0.5Q65.3 0.5 60.35-1.5L60.35-1.5 61.5-8.75 62.35-9.25Q64.45-7.5 66.92-6.53 69.4-5.55 71.2-5.55L71.2-5.55Q73.1-5.55 74.07-6.4 75.05-7.25 75.05-8.4L75.05-8.4Q75.05-9.75 73.8-10.65 72.55-11.55 69.9-12.75L69.9-12.75Q67.2-14 65.47-15.08 63.75-16.15 62.5-17.95 61.25-19.75 61.25-22.35L61.25-22.35Q61.25-25.3 62.82-27.68 64.4-30.05 67.22-31.4 70.05-32.75 73.7-32.75L73.7-32.75ZM96.34-32.25L95.89-10.35 96.19 0 88.04 0 88.49-9.55 88.04-32.25 96.34-32.25ZM118.54-32.7Q123.94-32.7 127.89-30.95L127.89-30.95 126.19-23.7 125.49-23.7Q123.04-25.05 121.12-25.63 119.19-26.2 117.04-26.2L117.04-26.2Q114.34-26.2 112.74-25.23 111.14-24.25 110.37-22 109.59-19.75 109.59-15.85L109.59-15.85Q109.59-12 110.34-9.83 111.09-7.65 112.72-6.7 114.34-5.75 117.19-5.75L117.19-5.75Q118.59-5.75 120.44-6.25L120.44-6.25 120.49-8.5 120.34-13.75 127.79-14.3 127.69-9.85 127.74-1.6Q121.79 0.5 116.49 0.5L116.49 0.5Q108.84 0.5 104.99-3.63 101.14-7.75 101.14-15.45L101.14-15.45Q101.14-23.85 105.64-28.28 110.14-32.7 118.54-32.7L118.54-32.7ZM161.34-32.4L160.89-10.2 161.19 0 152.39 0 140.94-19.95 140.44-19.95 140.39-11.35 140.69 0 133.34 0 133.74-9.5 133.34-32.25 142.09-32.25 153.59-12.3 154.09-12.3 153.89-31.95 161.34-32.4Z" fill="#6d285f" data-fill-palette-color="primary"></path></g></svg></g></svg></g><g transform="matrix(1,0,0,1,163.310208,49.40109105755121)"><svg viewBox="0 0 232.209792 16.922137277871652" height="16.922137277871652" width="232.209792"><g transform="matrix(1,0,0,1,0,0)"><svg width="232.209792" viewBox="1.95 -37.99 679.01 49.49" height="16.922137277871652" data-palette-color="url(#39b9d82e-fa80-45b5-8876-7074087670b8)"></svg></g></svg></g></svg></g></svg></g><g transform="matrix(1,0,0,1,414.39005648924893,0)"><svg viewBox="0 0 80.2352224919957 80.2352224919957" height="80.2352224919957" width="80.2352224919957"><g><svg></svg></g><g id="icon-0"><svg viewBox="0 0 80.2352224919957 80.2352224919957" height="80.2352224919957" width="80.2352224919957"><g></g><g transform="matrix(1,0,0,1,17.36816518071527,20.07519308779695)"><svg viewBox="0 0 45.49889213056516 40.0848363164018" height="40.0848363164018" width="45.49889213056516"><g><svg xmlns="http://www.w3.org/2000/svg" xmlns:xlink="http://www.w3.org/1999/xlink" version="1.1" x="0" y="0" viewBox="6.3 11.5 87.4 77" style="enable-background:new 0 0 100 100;" xml:space="preserve" height="40.0848363164018" width="45.49889213056516" class="icon-z$-0" data-fill-palette-color="accent" id="z$-0"></svg></g></svg></g></svg></g></svg></g></svg></g><defs></defs><mask id="fd19e744-08ab-415b-8ae9-91fa17b54062"><g id="SvgjsG1268"><svg viewBox="0 0 395.5199999999999 64.15894324163213" height="64.15894324163213" width="395.5199999999999"><g><svg viewBox="0 0 494.62527898124466 80.2352224919957" height="64.15894324163213" width="395.5199999999999"><g transform="matrix(1,0,0,1,0,6.955997078286416)"><svg viewBox="0 0 395.52 66.32322833542287" height="66.32322833542287" width="395.52"><g id="SvgjsG1267"><svg viewBox="0 0 395.52 66.32322833542287" height="66.32322833542287" width="395.52" id="SvgjsSvg1266"><g><svg viewBox="0 0 395.52 39.96606281292672" height="39.96606281292672" width="395.52"><g transform="matrix(1,0,0,1,0,0)"><svg width="395.52" viewBox="3.5 -32.75 327.83000000000004 33.3" height="39.96606281292672" data-palette-color="#6d285f"><g class="wordmark-text-0" data-fill-palette-color="primary" id="SvgjsG1265"><path d="M183.24-32.75Q187.54-32.75 191.94-31.05L191.94-31.05 190.64-24.25 189.44-23.8Q187.54-25.05 185.64-25.75 183.74-26.45 182.34-26.45L182.34-26.45Q180.69-26.45 179.71-25.63 178.74-24.8 178.74-23.7L178.74-23.7Q178.74-22.45 179.96-21.58 181.19-20.7 183.84-19.5L183.84-19.5Q186.64-18.2 188.36-17.13 190.09-16.05 191.36-14.25 192.64-12.45 192.64-9.85L192.64-9.85Q192.64-6.95 191.06-4.6 189.49-2.25 186.59-0.88 183.69 0.5 179.89 0.5L179.89 0.5Q174.84 0.5 169.89-1.5L169.89-1.5 171.04-8.75 171.89-9.25Q173.99-7.5 176.46-6.53 178.94-5.55 180.74-5.55L180.74-5.55Q182.64-5.55 183.61-6.4 184.59-7.25 184.59-8.4L184.59-8.4Q184.59-9.75 183.34-10.65 182.09-11.55 179.44-12.75L179.44-12.75Q176.74-14 175.01-15.08 173.29-16.15 172.04-17.95 170.79-19.75 170.79-22.35L170.79-22.35Q170.79-25.3 172.36-27.68 173.94-30.05 176.76-31.4 179.59-32.75 183.24-32.75L183.24-32.75ZM218.59-32.25L219.04-31.65 218.59-25.7 212.29-26 210.89-26 210.64-10.35 210.94 0 202.84 0 203.29-9.55 203.04-26 201.54-26 195.19-25.7 194.69-26.3 195.19-32.25 218.59-32.25ZM249.08-32.25L248.78-15.9 248.73-11.25Q248.78-5.6 245.26-2.55 241.73 0.5 235.23 0.5L235.23 0.5Q228.93 0.5 225.61-2.5 222.28-5.5 222.43-11.1L222.43-11.1 222.53-16 222.33-32.25 230.43-32.25 230.08-12.2Q230.03-9 231.38-7.5 232.73-6 235.58-6L235.58-6Q238.48-6 239.86-7.48 241.23-8.95 241.18-12L241.18-12 240.83-32.25 249.08-32.25ZM268.93-32.45Q276.03-32.45 279.78-28.58 283.53-24.7 283.53-17.4L283.53-17.4Q283.53-8.8 279.23-4.2 274.93 0.4 266.93 0.4L266.93 0.4Q262.33 0.4 255.33 0L255.33 0 255.28 0 255.73-9.55 255.28-32.25 255.33-32.25 268.93-32.45ZM268.43-5.75Q275.08-5.75 275.08-15.45L275.08-15.45Q275.08-21.15 273.48-23.6 271.88-26.05 268.28-26.05L268.28-26.05Q265.63-26.05 263.43-25.85L263.43-25.85 263.13-10.35 263.23-6.15Q266.18-5.75 268.43-5.75L268.43-5.75ZM296.53-32.25L296.08-10.35 296.38 0 288.23 0 288.68-9.55 288.23-32.25 296.53-32.25ZM316.93-32.75Q323.83-32.75 327.58-28.63 331.33-24.5 331.33-16.9L331.33-16.9Q331.33-8.6 327.23-4.03 323.13 0.55 315.68 0.55L315.68 0.55Q308.83 0.55 305.08-3.68 301.33-7.9 301.33-15.65L301.33-15.65Q301.33-23.85 305.4-28.3 309.48-32.75 316.93-32.75L316.93-32.75ZM316.23-26.25Q313.88-26.25 312.48-25.33 311.08-24.4 310.43-22.33 309.78-20.25 309.78-16.7L309.78-16.7Q309.78-12.45 310.43-10.03 311.08-7.6 312.5-6.55 313.93-5.5 316.38-5.5L316.38-5.5Q318.78-5.5 320.18-6.43 321.58-7.35 322.2-9.45 322.83-11.55 322.83-15.2L322.83-15.2Q322.83-19.4 322.18-21.8 321.53-24.2 320.13-25.23 318.73-26.25 316.23-26.25L316.23-26.25Z" fill="white"></path></g></svg></g></svg></g><g transform="matrix(1,0,0,1,163.310208,49.40109105755121)"><svg viewBox="0 0 232.209792 16.922137277871652" height="16.922137277871652" width="232.209792"><g transform="matrix(1,0,0,1,0,0)"><svg width="232.209792" viewBox="1.95 -37.99 679.01 49.49" height="16.922137277871652" data-palette-color="url(#39b9d82e-fa80-45b5-8876-7074087670b8)"><path d="M22.46-26.95Q22.46-29.1 21.68-30.18 20.9-31.25 19.96-31.82 19.02-32.4 17.9-32.7 16.77-33.01 15.65-33.01L15.65-33.01Q13.79-33.01 12.4-32.58 11.01-32.15 10.1-31.42 9.18-30.69 8.72-29.71 8.25-28.74 8.25-27.66L8.25-27.66Q8.25-26.05 8.83-25.06 9.4-24.07 10.28-23.47 11.16-22.88 12.22-22.53 13.28-22.19 14.26-21.85L14.26-21.85 19.19-20.24Q21.41-19.53 23.11-18.63 24.8-17.72 25.95-16.49 27.1-15.26 27.7-13.65 28.3-12.04 28.3-9.91L28.3-9.91Q28.3-7.62 27.36-5.66 26.42-3.71 24.73-2.27 23.05-0.83 20.72-0.01 18.38 0.81 15.6 0.81L15.6 0.81Q12.74 0.81 10.72 0.16 8.69-0.49 7.31-1.57 5.93-2.66 5.1-4.05 4.27-5.44 3.81-6.91L3.81-6.91 1.95-6.91 1.95-11.11 8.11-11.11Q8.11-8.4 8.68-7.28 9.25-6.15 10.28-5.41 11.3-4.66 12.72-4.28 14.14-3.91 15.84-3.91L15.84-3.91Q17.5-3.91 18.84-4.3 20.17-4.69 21.11-5.43 22.05-6.18 22.55-7.24 23.05-8.3 23.05-9.64L23.05-9.64Q23.05-11.13 22.42-12.17 21.8-13.21 20.83-13.94 19.85-14.67 18.69-15.14 17.53-15.6 16.46-15.94L16.46-15.94 11.11-17.46Q9.35-17.99 7.9-18.82 6.45-19.65 5.41-20.85 4.37-22.05 3.81-23.65 3.25-25.24 3.25-27.34L3.25-27.34Q3.25-29.47 4.08-31.32 4.91-33.18 6.52-34.57 8.13-35.96 10.46-36.76 12.79-37.55 15.8-37.55L15.8-37.55Q17.77-37.55 19.45-37.08 21.12-36.62 22.47-35.78 23.83-34.94 24.87-33.75 25.9-32.57 26.61-31.15L26.61-31.15 28.44-31.15 28.44-26.95 22.46-26.95ZM39.3-33.45L39.3-25.29 45.24-25.29 45.24-21.61 39.26-21.61 39.18-7.01Q39.18-5.52 39.52-4.59 39.87-3.66 40.62-3.31 41.38-2.95 42.33-2.95L42.33-2.95Q43.36-2.95 44.14-3.14 44.92-3.32 45.85-3.76L45.85-3.76 46.9-0.71Q45.73-0.1 44.43 0.26 43.14 0.61 41.38 0.61L41.38 0.61Q39.72 0.61 38.49 0.21 37.25-0.2 36.41-1.15 35.57-2.1 35.15-3.7 34.74-5.3 34.74-7.69L34.74-7.69 34.81-21.61 30.78-21.61 30.78-25.29 34.86-25.29 34.86-31.35 39.3-33.45ZM65.45 0L65.45-2.34Q64.01-1 62.26-0.15 60.52 0.71 58.3 0.71L58.3 0.71Q56.44 0.71 54.89 0.12 53.34-0.46 52.22-1.48 51.09-2.49 50.47-3.83 49.85-5.18 49.85-6.69L49.85-6.69Q49.85-8.3 50.32-9.55 50.8-10.79 51.59-11.71 52.39-12.62 53.45-13.24 54.51-13.87 55.67-14.25 56.83-14.62 58.04-14.78 59.25-14.94 60.35-14.94L60.35-14.94Q62.1-14.94 63.3-14.83 64.5-14.72 65.47-14.53L65.47-14.53 65.5-16.6Q65.5-17.94 65.11-18.93 64.72-19.92 64.01-20.57 63.3-21.22 62.31-21.53 61.32-21.85 60.1-21.85L60.1-21.85Q58.95-21.85 57.91-21.69 56.86-21.53 55.94-21.28 55.02-21.02 54.26-20.69 53.49-20.36 52.95-20L52.95-20 51.46-23.14Q52.36-23.73 53.44-24.23 54.51-24.73 55.7-25.09 56.88-25.44 58.11-25.65 59.35-25.85 60.54-25.85L60.54-25.85Q62.74-25.85 64.5-25.33 66.25-24.8 67.48-23.71 68.7-22.61 69.36-20.91 70.01-19.21 70.01-16.85L70.01-16.85 69.99-4.2 72.8-4.2 72.8 0 65.45 0ZM59.3-3.1L59.3-3.1Q60.2-3.1 61.1-3.32 62.01-3.54 62.81-3.92 63.62-4.3 64.3-4.8 64.99-5.3 65.45-5.83L65.45-5.83 65.47-11.55 60.2-11.55Q58.88-11.55 57.8-11.25 56.71-10.96 55.92-10.4 55.12-9.84 54.68-9.01 54.24-8.18 54.24-7.1L54.24-7.1Q54.24-6.1 54.61-5.36 54.98-4.61 55.65-4.11 56.32-3.61 57.25-3.36 58.17-3.1 59.3-3.1ZM76.24-21.09L76.24-25.29 85.83-25.29 85.83-21.09 82.83-21.09 88.76-4.96 94.96-21.09 91.98-21.09 91.98-25.29 101.58-25.29 101.58-21.09 98.97-21.09 87.71 7.3 91.18 7.3 91.18 11.5 80.97 11.5 80.97 7.3 84.05 7.3 86.74 0.34 78.29-21.09 76.24-21.09ZM104.19 0Q104.19 0 104.19 0ZM118.62-32.79L118.62-37.01 130.43-37.01 130.43-32.79 126.92-32.79 126.92-4.2 130.43-4.2 130.43 0 118.62 0 118.62-4.2 122.13-4.2 122.13-32.79 118.62-32.79ZM153.01 0L153.01-4.2 156.58-4.2 156.58-15.75Q156.58-18.65 155.1-20.15 153.62-21.66 150.86-21.66L150.86-21.66Q149.28-21.66 147.67-20.9 146.05-20.14 144.61-19.02L144.61-19.02 144.61-4.2 148.18-4.2 148.18 0 136.36 0 136.36-4.2 139.88-4.2 139.88-21.09 136.36-21.09 136.36-25.29 144.42-25.29 144.42-22.31 144.47-22.31Q145.27-23.02 146.19-23.66 147.1-24.29 148.11-24.76 149.11-25.22 150.19-25.49 151.28-25.76 152.48-25.76L152.48-25.76Q154.5-25.76 156.14-25.2 157.77-24.63 158.92-23.49 160.07-22.34 160.69-20.54 161.31-18.75 161.31-16.31L161.31-16.31 161.31-4.2 164.83-4.2 164.83 0 153.01 0ZM184.31-18.51Q184.31-19.53 183.83-20.25 183.36-20.97 182.6-21.42 181.84-21.88 180.92-22.08 179.99-22.29 179.11-22.29L179.11-22.29Q178.13-22.29 177.31-22.07 176.5-21.85 175.91-21.44 175.32-21.02 174.99-20.42 174.67-19.82 174.67-19.09L174.67-19.09Q174.67-17.82 175.43-17.08 176.2-16.33 178.01-15.7L178.01-15.7 182.87-13.99Q185.99-12.94 187.43-11.13 188.87-9.33 188.87-6.81L188.87-6.81Q188.87-5.13 188.2-3.72 187.53-2.32 186.3-1.33 185.07-0.34 183.33 0.21 181.6 0.76 179.47 0.76L179.47 0.76Q176.52 0.76 174.67-0.2 172.81-1.15 171.81-2.71L171.81-2.71 169.27-2.71 169.27-6.91 174.32-6.91Q174.32-5.86 174.77-5.11 175.23-4.37 175.97-3.91 176.72-3.44 177.66-3.22 178.6-3 179.57-3L179.57-3Q180.52-3 181.4-3.23 182.28-3.47 182.95-3.92 183.63-4.37 184.02-5 184.41-5.64 184.41-6.45L184.41-6.45Q184.41-7.67 183.61-8.52 182.82-9.38 180.92-10.06L180.92-10.06 176.08-11.87Q173.13-12.92 171.7-14.54 170.27-16.16 170.27-18.6L170.27-18.6Q170.27-20.21 170.87-21.58 171.47-22.95 172.6-23.94 173.74-24.93 175.37-25.49 177.01-26.05 179.11-26.05L179.11-26.05Q181.82-26.05 183.65-25.29 185.48-24.54 186.95-22.71L186.95-22.71 189.31-22.71 189.31-18.51 184.31-18.51ZM192.95-21.09L192.95-25.29 201.01-25.29 201.01-23.19Q202.62-24.44 204.52-25.17 206.43-25.9 208.45-25.9L208.45-25.9Q210.94-25.9 213.02-24.98 215.09-24.05 216.59-22.36 218.1-20.68 218.93-18.32 219.76-15.97 219.76-13.11L219.76-13.11Q219.76-10.06 218.83-7.54 217.9-5.03 216.25-3.23 214.6-1.44 212.33-0.44 210.06 0.56 207.35 0.56L207.35 0.56Q205.42 0.56 203.92 0.16 202.42-0.24 201.05-0.88L201.05-0.88 201.05 7.3 205.01 7.3 205.01 11.5 193 11.5 193 7.3 196.46 7.3 196.46-21.09 192.95-21.09ZM207.26-21.9L207.26-21.9Q205.5-21.9 203.87-21.19 202.25-20.48 201.05-19.24L201.05-19.24 201.05-5.54Q201.86-4.71 203.36-4.05 204.86-3.39 207.11-3.39L207.11-3.39Q208.67-3.39 210.11-4 211.55-4.61 212.65-5.82 213.75-7.03 214.41-8.81 215.07-10.6 215.07-12.94L215.07-12.94Q215.07-15.09 214.45-16.75 213.82-18.41 212.76-19.56 211.7-20.7 210.28-21.3 208.87-21.9 207.26-21.9ZM224.25-21.09L224.25-25.29 232.5-25.29 232.5-4.2 236.31-4.2 236.31 0 224.29 0 224.29-4.2 227.91-4.2 227.91-21.09 224.25-21.09ZM227.05-34.25L227.05-34.25Q227.05-34.89 227.31-35.46 227.57-36.04 227.99-36.46 228.42-36.89 229.01-37.15 229.59-37.4 230.25-37.4L230.25-37.4Q230.89-37.4 231.46-37.15 232.03-36.89 232.46-36.46 232.89-36.04 233.14-35.46 233.4-34.89 233.4-34.25L233.4-34.25Q233.4-33.59 233.14-33.01 232.89-32.42 232.46-31.97 232.03-31.52 231.46-31.26 230.89-31.01 230.25-31.01L230.25-31.01Q229.59-31.01 229.01-31.26 228.42-31.52 227.99-31.97 227.57-32.42 227.31-33.01 227.05-33.59 227.05-34.25ZM258.67-25.44L258.67-19.95 254.03-19.95 254.03-21.51Q253.22-21.51 252.38-21.2 251.54-20.9 250.81-20.28 250.07-19.65 249.52-18.69 248.97-17.72 248.73-16.41L248.73-16.41 248.73-4.2 253.03-4.2 253.03 0 240.48 0 240.48-4.2 243.97-4.2 243.99-21.09 240.48-21.09 240.48-25.29 248.56-25.29 248.56-21.8Q249-22.58 249.55-23.25 250.1-23.93 250.77-24.43 251.44-24.93 252.26-25.21 253.08-25.49 254.03-25.49L254.03-25.49Q255.3-25.49 256.42-25.49 257.54-25.49 258.67-25.44L258.67-25.44ZM286.42-12.06L268.21-12.06Q268.21-10.99 268.37-10.1 268.53-9.2 268.82-8.4L268.82-8.4Q269.72-5.96 271.71-4.72 273.7-3.49 276.22-3.49L276.22-3.49Q278.2-3.49 280.06-4.04 281.93-4.59 283.98-5.76L283.98-5.76 285.81-2.66Q283.32-0.95 280.81-0.12 278.29 0.71 275.58 0.71L275.58 0.71Q273.02 0.71 270.83-0.15 268.65-1 267.07-2.69 265.5-4.37 264.61-6.88 263.72-9.4 263.72-12.74L263.72-12.74Q263.72-15.45 264.47-17.86 265.23-20.26 266.73-22.06 268.23-23.85 270.46-24.9 272.68-25.95 275.63-25.95L275.63-25.95Q278.49-25.95 280.4-25.09 282.32-24.22 283.53-22.79 284.74-21.36 285.36-19.53 285.98-17.7 286.23-15.8L286.23-15.8Q286.35-14.87 286.39-13.92 286.42-12.96 286.42-12.06L286.42-12.06ZM275.31-22.14L275.31-22.14Q273.73-22.14 272.54-21.69 271.36-21.24 270.53-20.4 269.7-19.56 269.2-18.33 268.7-17.11 268.45-15.6L268.45-15.6 281.56-15.6Q281.47-17.02 281.11-18.21 280.76-19.41 280.03-20.29 279.29-21.17 278.15-21.66 277-22.14 275.31-22.14ZM307.51-33.79L307.51-37.99 315.5-37.99 315.5-4.2 319.21-4.2 319.21 0 310.96 0 310.96-2.08Q309.74-0.83 308.12-0.13 306.51 0.56 304.46 0.56L304.46 0.56Q301.9 0.56 299.69-0.33 297.48-1.22 295.86-2.94 294.23-4.66 293.32-7.17 292.4-9.67 292.4-12.89L292.4-12.89Q292.4-15.82 293.28-18.23 294.16-20.63 295.77-22.33 297.38-24.02 299.65-24.96 301.92-25.9 304.71-25.9L304.71-25.9Q306.54-25.9 308.05-25.5 309.56-25.1 310.96-24.1L310.96-24.1 310.96-33.79 307.51-33.79ZM305.05-3.39L305.05-3.39Q307.07-3.39 308.44-3.99 309.81-4.59 310.96-5.79L310.96-5.79 310.96-19.95Q309.74-20.97 308.15-21.44 306.56-21.9 304.9-21.9L304.9-21.9Q303.29-21.9 301.87-21.3 300.46-20.7 299.4-19.56 298.33-18.41 297.72-16.75 297.11-15.09 297.11-12.94L297.11-12.94Q297.11-10.6 297.7-8.81 298.29-7.03 299.34-5.82 300.39-4.61 301.85-4 303.31-3.39 305.05-3.39ZM321.6 7.01L326.11-6.91 331.46-4.81 325.11 8.3 321.6 7.01ZM329.24 0Q329.24 0 329.24 0ZM357.21-18.51Q357.21-19.53 356.74-20.25 356.26-20.97 355.5-21.42 354.75-21.88 353.82-22.08 352.89-22.29 352.01-22.29L352.01-22.29Q351.04-22.29 350.22-22.07 349.4-21.85 348.82-21.44 348.23-21.02 347.9-20.42 347.57-19.82 347.57-19.09L347.57-19.09Q347.57-17.82 348.34-17.08 349.11-16.33 350.91-15.7L350.91-15.7 355.77-13.99Q358.9-12.94 360.34-11.13 361.78-9.33 361.78-6.81L361.78-6.81Q361.78-5.13 361.11-3.72 360.44-2.32 359.2-1.33 357.97-0.34 356.24 0.21 354.5 0.76 352.38 0.76L352.38 0.76Q349.43 0.76 347.57-0.2 345.71-1.15 344.71-2.71L344.71-2.71 342.17-2.71 342.17-6.91 347.23-6.91Q347.23-5.86 347.68-5.11 348.13-4.37 348.88-3.91 349.62-3.44 350.56-3.22 351.5-3 352.48-3L352.48-3Q353.43-3 354.31-3.23 355.19-3.47 355.86-3.92 356.53-4.37 356.92-5 357.31-5.64 357.31-6.45L357.31-6.45Q357.31-7.67 356.52-8.52 355.72-9.38 353.82-10.06L353.82-10.06 348.99-11.87Q346.03-12.92 344.6-14.54 343.18-16.16 343.18-18.6L343.18-18.6Q343.18-20.21 343.77-21.58 344.37-22.95 345.51-23.94 346.64-24.93 348.28-25.49 349.91-26.05 352.01-26.05L352.01-26.05Q354.72-26.05 356.55-25.29 358.39-24.54 359.85-22.71L359.85-22.71 362.22-22.71 362.22-18.51 357.21-18.51ZM374.18-33.45L374.18-25.29 380.11-25.29 380.11-21.61 374.13-21.61 374.06-7.01Q374.06-5.52 374.4-4.59 374.74-3.66 375.5-3.31 376.25-2.95 377.21-2.95L377.21-2.95Q378.23-2.95 379.01-3.14 379.79-3.32 380.72-3.76L380.72-3.76 381.77-0.71Q380.6-0.1 379.31 0.26 378.01 0.61 376.25 0.61L376.25 0.61Q374.59 0.61 373.36 0.21 372.13-0.2 371.29-1.15 370.44-2.1 370.03-3.7 369.61-5.3 369.61-7.69L369.61-7.69 369.69-21.61 365.66-21.61 365.66-25.29 369.74-25.29 369.74-31.35 374.18-33.45ZM400.32 0L400.32-2.34Q398.88-1 397.14-0.15 395.39 0.71 393.17 0.71L393.17 0.71Q391.31 0.71 389.76 0.12 388.21-0.46 387.09-1.48 385.97-2.49 385.35-3.83 384.72-5.18 384.72-6.69L384.72-6.69Q384.72-8.3 385.2-9.55 385.68-10.79 386.47-11.71 387.26-12.62 388.32-13.24 389.39-13.87 390.55-14.25 391.71-14.62 392.91-14.78 394.12-14.94 395.22-14.94L395.22-14.94Q396.98-14.94 398.18-14.83 399.37-14.72 400.35-14.53L400.35-14.53 400.37-16.6Q400.37-17.94 399.98-18.93 399.59-19.92 398.88-20.57 398.18-21.22 397.19-21.53 396.2-21.85 394.98-21.85L394.98-21.85Q393.83-21.85 392.78-21.69 391.73-21.53 390.81-21.28 389.9-21.02 389.13-20.69 388.36-20.36 387.82-20L387.82-20 386.33-23.14Q387.24-23.73 388.31-24.23 389.39-24.73 390.57-25.09 391.75-25.44 392.99-25.65 394.22-25.85 395.42-25.85L395.42-25.85Q397.61-25.85 399.37-25.33 401.13-24.8 402.35-23.71 403.57-22.61 404.23-20.91 404.89-19.21 404.89-16.85L404.89-16.85 404.86-4.2 407.67-4.2 407.67 0 400.32 0ZM394.17-3.1L394.17-3.1Q395.07-3.1 395.98-3.32 396.88-3.54 397.69-3.92 398.49-4.3 399.18-4.8 399.86-5.3 400.32-5.83L400.32-5.83 400.35-11.55 395.07-11.55Q393.76-11.55 392.67-11.25 391.58-10.96 390.79-10.4 390-9.84 389.56-9.01 389.12-8.18 389.12-7.1L389.12-7.1Q389.12-6.1 389.48-5.36 389.85-4.61 390.52-4.11 391.19-3.61 392.12-3.36 393.05-3.1 394.17-3.1ZM411.11-21.09L411.11-25.29 420.71-25.29 420.71-21.09 417.7-21.09 423.64-4.96 429.84-21.09 426.86-21.09 426.86-25.29 436.45-25.29 436.45-21.09 433.84-21.09 422.59 7.3 426.05 7.3 426.05 11.5 415.85 11.5 415.85 7.3 418.92 7.3 421.61 0.34 413.16-21.09 411.11-21.09ZM439.06 0Q439.06 0 439.06 0ZM452.24-21.09L452.24-25.29 460.5-25.29 460.5-4.2 464.31-4.2 464.31 0 452.29 0 452.29-4.2 455.91-4.2 455.91-21.09 452.24-21.09ZM455.05-34.25L455.05-34.25Q455.05-34.89 455.31-35.46 455.57-36.04 455.99-36.46 456.42-36.89 457.01-37.15 457.59-37.4 458.25-37.4L458.25-37.4Q458.89-37.4 459.46-37.15 460.03-36.89 460.46-36.46 460.89-36.04 461.14-35.46 461.4-34.89 461.4-34.25L461.4-34.25Q461.4-33.59 461.14-33.01 460.89-32.42 460.46-31.97 460.03-31.52 459.46-31.26 458.89-31.01 458.25-31.01L458.25-31.01Q457.59-31.01 457.01-31.26 456.42-31.52 455.99-31.97 455.57-32.42 455.31-33.01 455.05-33.59 455.05-34.25ZM485.13 0L485.13-4.2 488.69-4.2 488.69-15.75Q488.69-18.65 487.22-20.15 485.74-21.66 482.98-21.66L482.98-21.66Q481.39-21.66 479.78-20.9 478.17-20.14 476.73-19.02L476.73-19.02 476.73-4.2 480.29-4.2 480.29 0 468.48 0 468.48-4.2 471.99-4.2 471.99-21.09 468.48-21.09 468.48-25.29 476.53-25.29 476.53-22.31 476.58-22.31Q477.39-23.02 478.3-23.66 479.22-24.29 480.22-24.76 481.22-25.22 482.31-25.49 483.39-25.76 484.59-25.76L484.59-25.76Q486.62-25.76 488.25-25.2 489.89-24.63 491.04-23.49 492.18-22.34 492.81-20.54 493.43-18.75 493.43-16.31L493.43-16.31 493.43-4.2 496.94-4.2 496.94 0 485.13 0ZM516.42-18.51Q516.42-19.53 515.95-20.25 515.47-20.97 514.72-21.42 513.96-21.88 513.03-22.08 512.1-22.29 511.22-22.29L511.22-22.29Q510.25-22.29 509.43-22.07 508.61-21.85 508.03-21.44 507.44-21.02 507.11-20.42 506.78-19.82 506.78-19.09L506.78-19.09Q506.78-17.82 507.55-17.08 508.32-16.33 510.13-15.7L510.13-15.7 514.98-13.99Q518.11-12.94 519.55-11.13 520.99-9.33 520.99-6.81L520.99-6.81Q520.99-5.13 520.32-3.72 519.65-2.32 518.41-1.33 517.18-0.34 515.45 0.21 513.71 0.76 511.59 0.76L511.59 0.76Q508.64 0.76 506.78-0.2 504.93-1.15 503.92-2.71L503.92-2.71 501.39-2.71 501.39-6.91 506.44-6.91Q506.44-5.86 506.89-5.11 507.34-4.37 508.09-3.91 508.83-3.44 509.77-3.22 510.71-3 511.69-3L511.69-3Q512.64-3 513.52-3.23 514.4-3.47 515.07-3.92 515.74-4.37 516.13-5 516.52-5.64 516.52-6.45L516.52-6.45Q516.52-7.67 515.73-8.52 514.94-9.38 513.03-10.06L513.03-10.06 508.2-11.87Q505.24-12.92 503.81-14.54 502.39-16.16 502.39-18.6L502.39-18.6Q502.39-20.21 502.98-21.58 503.58-22.95 504.72-23.94 505.85-24.93 507.49-25.49 509.12-26.05 511.22-26.05L511.22-26.05Q513.93-26.05 515.77-25.29 517.6-24.54 519.06-22.71L519.06-22.71 521.43-22.71 521.43-18.51 516.42-18.51ZM525.06-21.09L525.06-25.29 533.12-25.29 533.12-23.19Q534.73-24.44 536.64-25.17 538.54-25.9 540.57-25.9L540.57-25.9Q543.06-25.9 545.13-24.98 547.21-24.05 548.71-22.36 550.21-20.68 551.04-18.32 551.87-15.97 551.87-13.11L551.87-13.11Q551.87-10.06 550.94-7.54 550.02-5.03 548.37-3.23 546.72-1.44 544.45-0.44 542.18 0.56 539.47 0.56L539.47 0.56Q537.54 0.56 536.04 0.16 534.54-0.24 533.17-0.88L533.17-0.88 533.17 7.3 537.13 7.3 537.13 11.5 525.11 11.5 525.11 7.3 528.58 7.3 528.58-21.09 525.06-21.09ZM539.37-21.9L539.37-21.9Q537.61-21.9 535.99-21.19 534.37-20.48 533.17-19.24L533.17-19.24 533.17-5.54Q533.98-4.71 535.48-4.05 536.98-3.39 539.22-3.39L539.22-3.39Q540.79-3.39 542.23-4 543.67-4.61 544.77-5.82 545.87-7.03 546.52-8.81 547.18-10.6 547.18-12.94L547.18-12.94Q547.18-15.09 546.56-16.75 545.94-18.41 544.88-19.56 543.81-20.7 542.4-21.3 540.98-21.9 539.37-21.9ZM556.36-21.09L556.36-25.29 564.61-25.29 564.61-4.2 568.42-4.2 568.42 0 556.41 0 556.41-4.2 560.02-4.2 560.02-21.09 556.36-21.09ZM559.17-34.25L559.17-34.25Q559.17-34.89 559.42-35.46 559.68-36.04 560.11-36.46 560.54-36.89 561.12-37.15 561.71-37.4 562.37-37.4L562.37-37.4Q563-37.4 563.58-37.15 564.15-36.89 564.58-36.46 565-36.04 565.26-35.46 565.52-34.89 565.52-34.25L565.52-34.25Q565.52-33.59 565.26-33.01 565-32.42 564.58-31.97 564.15-31.52 563.58-31.26 563-31.01 562.37-31.01L562.37-31.01Q561.71-31.01 561.12-31.26 560.54-31.52 560.11-31.97 559.68-32.42 559.42-33.01 559.17-33.59 559.17-34.25ZM590.78-25.44L590.78-19.95 586.14-19.95 586.14-21.51Q585.34-21.51 584.5-21.2 583.65-20.9 582.92-20.28 582.19-19.65 581.64-18.69 581.09-17.72 580.85-16.41L580.85-16.41 580.85-4.2 585.14-4.2 585.14 0 572.59 0 572.59-4.2 576.08-4.2 576.11-21.09 572.59-21.09 572.59-25.29 580.67-25.29 580.67-21.8Q581.11-22.58 581.66-23.25 582.21-23.93 582.88-24.43 583.56-24.93 584.37-25.21 585.19-25.49 586.14-25.49L586.14-25.49Q587.41-25.49 588.54-25.49 589.66-25.49 590.78-25.44L590.78-25.44ZM595.83-21.09L595.83-25.29 604.09-25.29 604.09-4.2 607.89-4.2 607.89 0 595.88 0 595.88-4.2 599.5-4.2 599.5-21.09 595.83-21.09ZM598.64-34.25L598.64-34.25Q598.64-34.89 598.9-35.46 599.15-36.04 599.58-36.46 600.01-36.89 600.59-37.15 601.18-37.4 601.84-37.4L601.84-37.4Q602.47-37.4 603.05-37.15 603.62-36.89 604.05-36.46 604.48-36.04 604.73-35.46 604.99-34.89 604.99-34.25L604.99-34.25Q604.99-33.59 604.73-33.01 604.48-32.42 604.05-31.97 603.62-31.52 603.05-31.26 602.47-31.01 601.84-31.01L601.84-31.01Q601.18-31.01 600.59-31.26 600.01-31.52 599.58-31.97 599.15-32.42 598.9-33.01 598.64-33.59 598.64-34.25ZM628.72 0L628.72-4.2 632.28-4.2 632.28-15.75Q632.28-18.65 630.8-20.15 629.33-21.66 626.57-21.66L626.57-21.66Q624.98-21.66 623.37-20.9 621.76-20.14 620.32-19.02L620.32-19.02 620.32-4.2 623.88-4.2 623.88 0 612.07 0 612.07-4.2 615.58-4.2 615.58-21.09 612.07-21.09 612.07-25.29 620.12-25.29 620.12-22.31 620.17-22.31Q620.98-23.02 621.89-23.66 622.81-24.29 623.81-24.76 624.81-25.22 625.9-25.49 626.98-25.76 628.18-25.76L628.18-25.76Q630.21-25.76 631.84-25.2 633.48-24.63 634.62-23.49 635.77-22.34 636.39-20.54 637.02-18.75 637.02-16.31L637.02-16.31 637.02-4.2 640.53-4.2 640.53 0 628.72 0ZM663.92-1.86L663.92-2.22Q662.67-0.9 661.03-0.17 659.38 0.56 657.28 0.56L657.28 0.56Q654.72 0.56 652.51-0.33 650.3-1.22 648.67-2.94 647.05-4.66 646.13-7.17 645.22-9.67 645.22-12.89L645.22-12.89Q645.22-15.82 646.1-18.23 646.98-20.63 648.59-22.33 650.2-24.02 652.47-24.96 654.74-25.9 657.52-25.9L657.52-25.9Q659.43-25.9 660.95-25.48 662.48-25.05 663.92-24L663.92-24 663.92-25.29 668.46-25.29 668.46-1Q668.46 5 665.62 8.08 662.77 11.16 656.77 11.16L656.77 11.16Q655.45 11.16 654.01 10.96 652.57 10.77 651.16 10.34 649.76 9.91 648.43 9.25 647.1 8.59 645.97 7.64L645.97 7.64 648.42 3.96Q649.15 4.59 650.09 5.13 651.03 5.66 652.1 6.04 653.18 6.42 654.32 6.64 655.47 6.86 656.62 6.86L656.62 6.86Q658.5 6.86 659.88 6.47 661.26 6.08 662.15 5.09 663.04 4.1 663.48 2.42 663.92 0.73 663.92-1.86L663.92-1.86ZM657.86-3.39L657.86-3.39Q658.99-3.39 659.92-3.61 660.84-3.83 661.6-4.19 662.36-4.54 662.93-5 663.5-5.47 663.92-5.98L663.92-5.98 663.92-19.82Q662.67-20.92 661.05-21.41 659.43-21.9 657.72-21.9L657.72-21.9Q656.11-21.9 654.69-21.3 653.27-20.7 652.21-19.56 651.15-18.41 650.54-16.75 649.93-15.09 649.93-12.94L649.93-12.94Q649.93-10.6 650.52-8.81 651.1-7.03 652.15-5.82 653.2-4.61 654.67-4 656.13-3.39 657.86-3.39ZM674.61-2.95L674.61-2.95Q674.61-3.59 674.87-4.16 675.12-4.74 675.56-5.16 676-5.59 676.58-5.85 677.15-6.1 677.81-6.1L677.81-6.1Q678.44-6.1 679.02-5.85 679.59-5.59 680.02-5.16 680.45-4.74 680.7-4.16 680.96-3.59 680.96-2.95L680.96-2.95Q680.96-2.29 680.7-1.71 680.45-1.12 680.02-0.67 679.59-0.22 679.02 0.04 678.44 0.29 677.81 0.29L677.81 0.29Q677.15 0.29 676.58 0.04 676-0.22 675.56-0.67 675.12-1.12 674.87-1.71 674.61-2.29 674.61-2.95Z" opacity="1" transform="matrix(1,0,0,1,0,0)" fill="white" class="slogan-text-1" id="SvgjsPath1264"></path></svg></g></svg></g></svg></g></svg></g><g transform="matrix(1,0,0,1,414.39005648924893,0)"><svg viewBox="0 0 80.2352224919957 80.2352224919957" height="80.2352224919957" width="80.2352224919957"><g><svg></svg></g><g id="SvgjsG1263"><svg viewBox="0 0 80.2352224919957 80.2352224919957" height="80.2352224919957" width="80.2352224919957"><g></g><g transform="matrix(1,0,0,1,17.36816518071527,20.07519308779695)"><svg viewBox="0 0 45.49889213056516 40.0848363164018" height="40.0848363164018" width="45.49889213056516"><g><svg xmlns="http://www.w3.org/2000/svg" xmlns:xlink="http://www.w3.org/1999/xlink" version="1.1" x="0" y="0" viewBox="6.3 11.5 87.4 77" style="enable-background:new 0 0 100 100;" xml:space="preserve" height="40.0848363164018" width="45.49889213056516" class="icon-z$-0" data-fill-palette-color="accent" id="SvgjsSvg1262"></svg></g></svg></g></svg></g></svg></g></svg></g><defs><mask></mask></defs></svg></g></mask><linearGradient x1="0" x2="1" y1="0.548" y2="0.55" id="39b9d82e-fa80-45b5-8876-7074087670b8"><stop stop-color="#ff6cab" offset="0"></stop><stop stop-color="#7366ff" offset="1"></stop></linearGradient><rect width="395.5199999999999" height="64.15894324163213" fill="url(#39b9d82e-fa80-45b5-8876-7074087670b8)" mask="url(#fd19e744-08ab-415b-8ae9-91fa17b54062)" data-fill-palette-color="secondary"></rect><mask id="a4df7445-0b6a-42ac-8a3b-8083cdb6d299"><g id="SvgjsG1281"><svg viewBox="0 0 395.5199999999999 64.15894324163213" height="64.15894324163213" width="395.5199999999999"><g><svg viewBox="0 0 494.62527898124466 80.2352224919957" height="64.15894324163213" width="395.5199999999999"><g transform="matrix(1,0,0,1,0,6.955997078286416)"><svg viewBox="0 0 395.52 66.32322833542287" height="66.32322833542287" width="395.52"><g id="SvgjsG1280"><svg viewBox="0 0 395.52 66.32322833542287" height="66.32322833542287" width="395.52" id="SvgjsSvg1279"><g><svg viewBox="0 0 395.52 39.96606281292672" height="39.96606281292672" width="395.52"><g transform="matrix(1,0,0,1,0,0)"><svg width="395.52" viewBox="3.5 -32.75 327.83000000000004 33.3" height="39.96606281292672" data-palette-color="#6d285f"><g class="wordmark-text-0" data-fill-palette-color="primary" id="SvgjsG1278"></g></svg></g></svg></g><g transform="matrix(1,0,0,1,163.310208,49.40109105755121)"><svg viewBox="0 0 232.209792 16.922137277871652" height="16.922137277871652" width="232.209792"><g transform="matrix(1,0,0,1,0,0)"><svg width="232.209792" viewBox="1.95 -37.99 679.01 49.49" height="16.922137277871652" data-palette-color="url(#39b9d82e-fa80-45b5-8876-7074087670b8)"></svg></g></svg></g></svg></g></svg></g><g transform="matrix(1,0,0,1,414.39005648924893,0)"><svg viewBox="0 0 80.2352224919957 80.2352224919957" height="80.2352224919957" width="80.2352224919957"><g><svg></svg></g><g id="SvgjsG1277"><svg viewBox="0 0 80.2352224919957 80.2352224919957" height="80.2352224919957" width="80.2352224919957"><g><path d="M0 40.118c0-22.156 17.961-40.118 40.118-40.118 22.156 0 40.118 17.961 40.117 40.118 0 22.156-17.961 40.118-40.117 40.117-22.156 0-40.118-17.961-40.118-40.117zM40.118 76.631c20.166 0 36.513-16.348 36.513-36.513 0-20.166-16.348-36.513-36.513-36.514-20.166 0-36.513 16.348-36.514 36.514 0 20.166 16.348 36.513 36.514 36.513z" fill="white" stroke="transparent"></path></g><g transform="matrix(1,0,0,1,17.36816518071527,20.07519308779695)"><svg viewBox="0 0 45.49889213056516 40.0848363164018" height="40.0848363164018" width="45.49889213056516"><g><svg xmlns="http://www.w3.org/2000/svg" xmlns:xlink="http://www.w3.org/1999/xlink" version="1.1" x="0" y="0" viewBox="6.3 11.5 87.4 77" style="enable-background:new 0 0 100 100;" xml:space="preserve" height="40.0848363164018" width="45.49889213056516" class="icon-z$-0" data-fill-palette-color="accent" id="SvgjsSvg1276"><path d="M72.3 12.3L72.3 12.3 72.3 12.3l-0.4-0.8H28.2L6.3 50l21.8 38.5h43.7L93.7 50 72.3 12.3zM33.3 25.3L9.9 47.7l18.6-32.8L33.3 25.3zM70.7 14.8l6.4 35.7L36.9 25.8 70.7 14.8zM35.5 27.3l41 25.2-41 23.3V27.3zM77 54.5l-7.2 30.8-32.6-8.1L77 54.5zM33.5 75L9.9 50.5l23.6-22.7V75zM33.2 77.6l-4.6 7.7L11.5 55.1 33.2 77.6zM35 78.6l31.4 7.9H30.2L35 78.6zM79.3 53.3l11.6-2.5L72.1 84 79.3 53.3zM90.7 48.9l-11.4 2.5-5.9-33.1L90.7 48.9zM35 24.3l-5-10.8h38.2L35 24.3z" fill="white"></path></svg></g></svg></g></svg></g></svg></g></svg></g><defs><mask></mask></defs><mask><g id="SvgjsG1275"><svg viewBox="0 0 395.5199999999999 64.15894324163213" height="64.15894324163213" width="395.5199999999999"><g><svg viewBox="0 0 494.62527898124466 80.2352224919957" height="64.15894324163213" width="395.5199999999999"><g transform="matrix(1,0,0,1,0,6.955997078286416)"><svg viewBox="0 0 395.52 66.32322833542287" height="66.32322833542287" width="395.52"><g id="SvgjsG1274"><svg viewBox="0 0 395.52 66.32322833542287" height="66.32322833542287" width="395.52" id="SvgjsSvg1273"><g><svg viewBox="0 0 395.52 39.96606281292672" height="39.96606281292672" width="395.52"><g transform="matrix(1,0,0,1,0,0)"><svg width="395.52" viewBox="3.5 -32.75 327.83000000000004 33.3" height="39.96606281292672" data-palette-color="#6d285f"><g class="wordmark-text-0" data-fill-palette-color="primary" id="SvgjsG1272"></g></svg></g></svg></g><g transform="matrix(1,0,0,1,163.310208,49.40109105755121)"><svg viewBox="0 0 232.209792 16.922137277871652" height="16.922137277871652" width="232.209792"><g transform="matrix(1,0,0,1,0,0)"><svg width="232.209792" viewBox="1.95 -37.99 679.01 49.49" height="16.922137277871652" data-palette-color="url(#39b9d82e-fa80-45b5-8876-7074087670b8)"></svg></g></svg></g></svg></g></svg></g><g transform="matrix(1,0,0,1,414.39005648924893,0)"><svg viewBox="0 0 80.2352224919957 80.2352224919957" height="80.2352224919957" width="80.2352224919957"><g><svg></svg></g><g id="SvgjsG1270"><svg viewBox="0 0 80.2352224919957 80.2352224919957" height="80.2352224919957" width="80.2352224919957"><g></g><g transform="matrix(1,0,0,1,17.36816518071527,20.07519308779695)"><svg viewBox="0 0 45.49889213056516 40.0848363164018" height="40.0848363164018" width="45.49889213056516"><g><svg xmlns="http://www.w3.org/2000/svg" xmlns:xlink="http://www.w3.org/1999/xlink" version="1.1" x="0" y="0" viewBox="6.3 11.5 87.4 77" style="enable-background:new 0 0 100 100;" xml:space="preserve" height="40.0848363164018" width="45.49889213056516" class="icon-z$-0" data-fill-palette-color="accent" id="SvgjsSvg1269"></svg></g></svg></g></svg></g></svg></g></svg></g><defs><mask></mask></defs></svg></g></mask></svg></g></mask><linearGradient x1="0" x2="1" y1="0.548" y2="0.55" id="451e1d82-96ee-4f81-bb3a-601d27a175c7"><stop stop-color="#ff6cab" offset="0"></stop><stop stop-color="#7366ff" offset="1"></stop></linearGradient><rect width="395.5199999999999" height="64.15894324163213" fill="url(#451e1d82-96ee-4f81-bb3a-601d27a175c7)" mask="url(#a4df7445-0b6a-42ac-8a3b-8083cdb6d299)" data-fill-palette-color="accent"></rect></svg><rect width="395.5199999999999" height="64.15894324163213" fill="none" stroke="none" visibility="hidden"></rect></g></svg></g></svg>